# xmcd
#
# Track frame offsets:
#	150
#	18299
#	36830
#	56869
#	75421
#	93123
#	112333
#	128301
#	151299
#
# Disc length: 2229 seconds
#
# Revision: 12
# Processed by: cddbd v1.5.2PL0 Copyright (c) Steve Scherf et al.
# Submitted via: Jack! The Knife 20 Magnifico
#
DISCID=6308b309
DTITLE=Children Of Bodom - Blooddrunk
DYEAR=2008
DGENRE=Metal
TTITLE0=Hellbounds On My Trail
TTITLE1=Blooddrunk
TTITLE2=Lobodomy
TTITLE3=One Day You Will Cry
TTITLE4=Smile Pretty For The Devil
TTITLE5=Tie My Rope
TTITLE6=Done With Everything, Die For Nothing
TTITLE7=Banned From Heaven
TTITLE8=Roadkill Morning
EXTD=Mikko Karmila
EXTT0=Alexi Laiho
EXTT1=Alexi Laiho
EXTT2=Alexi Laiho
EXTT3=Alexi Laiho
EXTT4=Alexi Laiho
EXTT5=Alexi Laiho
EXTT6=Alexi Laiho
EXTT7=Alexi Laiho
EXTT8=Alexi Laiho
PLAYORDER=
